<?xml version="1.0" encoding="UTF-8" standalone="no"?>
<!-- Generator: Adobe Illustrator 16.0.0, SVG Export Plug-In . SVG Version: 6.00 Build 0)  -->

<svg
   xmlns:dc="http://purl.org/dc/elements/1.1/"
   xmlns:cc="http://creativecommons.org/ns#"
   xmlns:rdf="http://www.w3.org/1999/02/22-rdf-syntax-ns#"
   xmlns:svg="http://www.w3.org/2000/svg"
   xmlns="http://www.w3.org/2000/svg"
   xmlns:sodipodi="http://sodipodi.sourceforge.net/DTD/sodipodi-0.dtd"
   xmlns:inkscape="http://www.inkscape.org/namespaces/inkscape"
   version="1.1"
   id="Layer_1"
   x="0px"
   y="0px"
   width="60px"
   height="60px"
   viewBox="0 0 60 60"
   enable-background="new 0 0 60 60"
   xml:space="preserve"
   inkscape:version="0.91 r13725"
   sodipodi:docname="abacusstar.svg"><metadata
     id="metadata8"><rdf:RDF><cc:Work
         rdf:about=""><dc:format>image/svg+xml</dc:format><dc:type
           rdf:resource="http://purl.org/dc/dcmitype/StillImage" /></cc:Work></rdf:RDF></metadata><defs
     id="defs6" /><sodipodi:namedview
     pagecolor="#ffffff"
     bordercolor="#666666"
     borderopacity="1"
     objecttolerance="10"
     gridtolerance="10"
     guidetolerance="10"
     inkscape:pageopacity="0"
     inkscape:pageshadow="2"
     inkscape:window-width="1920"
     inkscape:window-height="1017"
     id="namedview4"
     showgrid="false"
     inkscape:zoom="3.9333333"
     inkscape:cx="-8.3898305"
     inkscape:cy="30"
     inkscape:window-x="-8"
     inkscape:window-y="-8"
     inkscape:window-maximized="1"
     inkscape:current-layer="Layer_1" /><path
     id="rect3894"
     d="m 30.019,11.9315 c -1.739,0 -3.168,1.429 -3.168,3.17 l 0,7.27 -5.156,-5.157 c -1.233,-1.23 -3.21,-1.231 -4.439,0 -1.23,1.233 -1.231,3.25 0,4.481 l 5.2,5.156 -7.354,0 c -1.741,0 -3.17,1.43 -3.17,3.169 0,1.741 1.429,3.128 3.17,3.128 l 7.312,0 -5.158,5.156 c -1.23,1.231 -1.231,3.249 0,4.479 1.233,1.23 3.25,1.191 4.48,-0.042 l 5.115,-5.156 0,7.354 c 0,1.742 1.43,3.129 3.168,3.129 1.742,0 3.128,-1.387 3.128,-3.129 l 0,-7.395 5.241,5.197 c 1.233,1.23 3.207,1.233 4.438,0 1.23,-1.231 1.232,-3.207 0,-4.438 l -5.198,-5.156 7.311,0 c 1.742,0 3.129,-1.387 3.129,-3.128 0,-1.739 -1.387,-3.169 -3.129,-3.169 l -7.354,0 5.198,-5.241 c 1.23,-1.233 1.232,-3.167 0,-4.396 -1.23,-1.23 -3.207,-1.274 -4.438,-0.042 l -5.198,5.241 0,-7.312 c 0,-1.74 -1.386,-3.169 -3.128,-3.169 z"
     style="opacity:1;fill:#f9f9f9"
     inkscape:connector-curvature="0" /></svg>